<svg id="vinyl_disc" xmlns="http://www.w3.org/2000/svg" width="40" height="40" viewBox="0 0 40 40">
  <defs>
    <style>
      #badge:hover { cursor: pointer; }
      #badge:hover .cls-1 { transform: rotate(20deg); }

      .cls-1, .cls-3 {
        fill: aqua;
        transform-origin: center;
        transition: all 0.5s ease;
      }

      .cls-1, .cls-2, .cls-3, .cls-4, .cls-5 {
        stroke: #000;
        stroke-miterlimit: 10;
      }

      .cls-2 {
        fill: #39b54a;
      }

      .cls-3 {
        stroke-width: 0.73px;
      }

      .cls-4 {
        fill: #fcee21;
        stroke-width: 0.22px;
      }

      .cls-5 {
        fill: none;
      }
    </style>
  </defs>
  <g id="Layer_2" data-name="Layer 2">
    <g id="Layer_4" data-name="Layer 4">
      <g>
        <circle class="cls-1" cx="20" cy="20" r="19.5"/>
        <circle class="cls-2" cx="20.25" cy="19.63" r="6.75"/>
        <circle class="cls-3" cx="20.26" cy="19.41" r="4.91"/>
        <circle class="cls-4" cx="20.5" cy="19.5" r="1.5"/>
        <g>
          <path class="cls-5" d="M6.75,13A12.28,12.28,0,0,1,21.82,4.39"/>
          <path class="cls-5" d="M10,14.66a9.29,9.29,0,0,1,11.4-6.54"/>
          <path class="cls-5" d="M8.16,13.91A11,11,0,0,1,21.69,6.15"/>
        </g>
        <path class="cls-5" d="M35.62,22.48A12.28,12.28,0,0,1,23.53,35"/>
        <path class="cls-5" d="M32,21.84a9.29,9.29,0,0,1-9.14,9.44"/>
        <path class="cls-5" d="M34,22A11,11,0,0,1,23.17,33.25"/>
      </g>
    </g>
  </g>
</svg>
