<svg xmlns="http://www.w3.org/2000/svg" width="30.44" height="30.63" viewBox="0 0 30.44 30.63">
  <defs>
    <style>
      #badge:hover {cursor: pointer;}
      #badge:hover .cls-1 { fill: blue}

      .cls-1 {
        fill: lime;
        transition: all 1.5s ease;
      }

      .cls-1, .cls-2, .cls-3, .cls-4 {
        stroke: #000;
        stroke-miterlimit: 10;
      }

      .cls-1, .cls-4 {
        stroke-width: 0.93px;
      }

      .cls-2 {
        fill: blue;
      }

      .cls-2, .cls-3 {
        stroke-width: 1.1px;
      }

      .cls-3 {
        fill: none;
      }

      .cls-4 {
        fill: #ff0;
      }
    </style>

    <script>
      let theCandies = document.querySelctor("#candies");

      function lgMyId() {
      console.log("clicked on the object tag:", this.id);
      }

      theCandies.addEventListener("click", logMyId)
    </script>
  </defs>
  <g id="Layer_2" data-name="Layer 2">
    <g id="candies">
      <g>
        <rect class="cls-1" x="15.46" y="3.79" width="7.69" height="17.73" rx="2.97" transform="matrix(0.8, -0.6, 0.6, 0.8, -3.74, 14.11)"/>
        <g>
          <line class="cls-2" x1="14.07" y1="0.91" x2="13.83" y2="5.65"/>
          <line class="cls-3" x1="9.08" y1="4.39" x2="13.86" y2="5.6"/>
          <line class="cls-3" x1="14.29" y1="0.45" x2="8.61" y2="4.47"/>
        </g>
        <g>
          <line class="cls-2" x1="24.76" y1="24.41" x2="24.86" y2="19.67"/>
          <line class="cls-3" x1="29.64" y1="20.79" x2="24.82" y2="19.72"/>
          <line class="cls-3" x1="24.55" y1="24.88" x2="30.11" y2="20.69"/>
        </g>
      </g>
      <g>
        <rect class="cls-4" x="7.16" y="9.1" width="7.69" height="17.73" rx="2.97" transform="translate(-8.58 10.2) rotate(-36.87)"/>
        <g>
          <line class="cls-2" x1="5.78" y1="6.22" x2="5.54" y2="10.96"/>
          <line class="cls-3" x1="0.79" y1="9.7" x2="5.57" y2="10.91"/>
          <line class="cls-3" x1="6" y1="5.76" x2="0.32" y2="9.78"/>
        </g>
        <g>
          <line class="cls-2" x1="16.47" y1="29.73" x2="16.57" y2="24.98"/>
          <line class="cls-3" x1="21.35" y1="26.1" x2="16.53" y2="25.03"/>
          <line class="cls-3" x1="16.26" y1="30.19" x2="21.82" y2="26"/>
        </g>
      </g>
    </g>
  </g>
</svg>
