<svg xmlns="http://www.w3.org/2000/svg" width="56.77" height="29" viewBox="0 0 56.77 29">
  <defs>
    <style>
      .cls-1 {
        fill: #fff;
      }

      .cls-1, .cls-2, .cls-3, .cls-4 {
        stroke: #000;
        stroke-miterlimit: 10;
      }

      .cls-2, .cls-3, .cls-4 {
        fill: none;
      }

      .cls-3 {
        stroke-width: 0.75px;
      }

      .cls-4 {
        stroke-width: 0.53px;
      }
    </style>
  </defs>
  <g id="Layer_2" data-name="Layer 2">
    <g id="Layer_10" data-name="Layer 10">
      <g>
        <path class="cls-1" d="M8.27,13.5h8.41A2.3,2.3,0,0,0,18.83,12L22.7,2A2.3,2.3,0,0,1,24.85.5H37a2.31,2.31,0,0,1,2.31,2.31v8.38a2.3,2.3,0,0,0,2.3,2.31H54a2.31,2.31,0,0,1,2.31,2.31v5.38A2.31,2.31,0,0,1,54,23.5H47.72a2.27,2.27,0,0,1-2-1.23,4.62,4.62,0,0,0-1.45-1.77c-5-3-7,3-7,3H17.14A2.28,2.28,0,0,1,15,22a3.62,3.62,0,0,0-3.71-2.5,5,5,0,0,0-4.52,2.77,2.29,2.29,0,0,1-2,1.23H3.57a2.3,2.3,0,0,1-2.3-2.31V15.81a2.3,2.3,0,0,1,2.3-2.31Z"/>
        <line class="cls-2" x1="17.27" y1="13.5" x2="41.27" y2="13.5"/>
        <line class="cls-2" x1="32.27" y1="0.5" x2="28.27" y2="13.5"/>
        <circle class="cls-2" cx="11.27" cy="24.5" r="4"/>
        <circle class="cls-3" cx="11.27" cy="24.5" r="3"/>
        <circle class="cls-2" cx="42.27" cy="24.5" r="4"/>
        <circle class="cls-3" cx="42.27" cy="24.5" r="3"/>
        <rect class="cls-4" x="0.27" y="15.5" width="1" height="3"/>
        <line class="cls-4" x1="25.27" y1="15.5" x2="27.27" y2="15.5"/>
        <line class="cls-4" x1="38.27" y1="15.5" x2="39.27" y2="15.5"/>
      </g>
    </g>
  </g>
</svg>
