<svg xmlns="http://www.w3.org/2000/svg" width="38.03" height="37.75" viewBox="0 0 38.03 37.75">
  <defs>
    <style>
      .cls-1 {
        fill: #ff0;
      }

      .cls-1, .cls-2 {
        stroke: #000;
        stroke-miterlimit: 10;
        stroke-width: 1.03px;
      }
    </style>
  </defs>
  <g id="Layer_2" data-name="Layer 2">
    <g id="Layer_2-2" data-name="Layer 2">
      <path class="cls-1" d="M.51,33.25V14.05a1.88,1.88,0,0,1,.29-1L3.34,8.91a17.67,17.67,0,0,1,15-8.4h1.4A18,18,0,0,1,35.6,10l1.69,3.13a2,2,0,0,1,.22.9V33.92a1.9,1.9,0,0,1-3.25,1.34l-1.1-1.1a1.91,1.91,0,0,0-2.94.29L29.1,36.14a1.91,1.91,0,0,1-3.17,0l-.83-1.25a1.91,1.91,0,0,0-3.17,0l-1,1.5a1.91,1.91,0,0,1-3.05.16L16,34.27a1.9,1.9,0,0,0-2.93,0l-1.9,2.28a1.9,1.9,0,0,1-3.05-.16L6.93,34.63a1.91,1.91,0,0,0-3-.16h0A1.91,1.91,0,0,1,.51,33.25Z"/>
      <circle class="cls-2" cx="12.01" cy="15.01" r="2.5"/>
      <circle class="cls-2" cx="26.01" cy="15.01" r="2.5"/>
    </g>
  </g>
</svg>
