<svg xmlns="http://www.w3.org/2000/svg" width="46" height="31" viewBox="0 0 46 31">
  <defs>
    <style>
      .cls-1 {
        fill: #c69c6d;
      }

      .cls-2 {
        fill: #fff;
      }

      .cls-3 {
        fill: #42210b;
      }
    </style>
  </defs>
  <g id="Layer_2" data-name="Layer 2">
    <g id="Layer_8" data-name="Layer 8">
      <g>
        <g>
          <rect class="cls-1" x="3.48" y="1.48" width="39.03" height="29.03"/>
          <path d="M42,2V30H4V2H42m1-1H3V31H43V1Z"/>
        </g>
        <g>
          <rect class="cls-2" x="28.5" y="10.5" width="11" height="19"/>
          <path d="M39,11V29H29V11H39m1-1H28V30H40V10Z"/>
        </g>
        <g>
          <rect class="cls-2" x="13.5" y="8.5" width="13" height="17" rx="2.27"/>
          <path d="M24.23,9A1.77,1.77,0,0,1,26,10.77V23.23A1.77,1.77,0,0,1,24.23,25H15.77A1.77,1.77,0,0,1,14,23.23V10.77A1.77,1.77,0,0,1,15.77,9h8.46m0-1H15.77A2.77,2.77,0,0,0,13,10.77V23.23A2.77,2.77,0,0,0,15.77,26h8.46A2.77,2.77,0,0,0,27,23.23V10.77A2.77,2.77,0,0,0,24.23,8Z"/>
        </g>
        <g>
          <rect class="cls-2" x="5.55" y="8.55" width="7.91" height="16.91" rx="1.99"/>
          <path d="M11.47,9.09a1.45,1.45,0,0,1,1.44,1.44V23.47a1.45,1.45,0,0,1-1.44,1.44H7.53a1.45,1.45,0,0,1-1.44-1.44V10.53A1.45,1.45,0,0,1,7.53,9.09h3.94m0-1.09H7.53A2.53,2.53,0,0,0,5,10.53V23.47A2.53,2.53,0,0,0,7.53,26h3.94A2.53,2.53,0,0,0,14,23.47V10.53A2.53,2.53,0,0,0,11.47,8Z"/>
        </g>
        <g>
          <path class="cls-3" d="M.4,4.6V4.32A3.93,3.93,0,0,1,4.32.4H41.68A3.93,3.93,0,0,1,45.6,4.32V4.6Z"/>
          <path d="M41.68.79a3.53,3.53,0,0,1,3.53,3.42H.79A3.53,3.53,0,0,1,4.32.79H41.68m0-.79H4.32A4.33,4.33,0,0,0,0,4.32V5H46V4.32A4.33,4.33,0,0,0,41.68,0Z"/>
        </g>
      </g>
    </g>
  </g>
</svg>
