<svg xmlns="http://www.w3.org/2000/svg" width="34" height="46" viewBox="0 0 34 46">
  <defs>
    <style>
      .cls-1 {
        fill: #fff;
      }

      .cls-2 {
        fill: none;
        stroke: #000;
        stroke-miterlimit: 10;
        stroke-width: 2px;
      }
    </style>
  </defs>
  <g id="Layer_2" data-name="Layer 2">
    <g id="Layer_9" data-name="Layer 9">
      <g>
        <g>
          <g>
            <path class="cls-1" d="M30.75,19.41l-.37,0H3.62l-.37,0A13.94,13.94,0,0,1,14.4,8.26a4.94,4.94,0,0,0,5.2,0A13.94,13.94,0,0,1,30.75,19.41Z"/>
            <path d="M19.77,9.31a12.93,12.93,0,0,1,9.71,9.08h-25a12.93,12.93,0,0,1,9.71-9.08,5.91,5.91,0,0,0,5.54,0m-.4-2.1a4,4,0,0,1-4.74,0A15,15,0,0,0,2.06,20.76a3.58,3.58,0,0,1,1.56-.37H30.38a3.58,3.58,0,0,1,1.56.37A15,15,0,0,0,19.37,7.21Z"/>
          </g>
          <g>
            <path class="cls-1" d="M31.73,31.27H2.27v.19A2.86,2.86,0,0,1,.73,28.91V24a2.85,2.85,0,0,1,1.65-2.6,2.76,2.76,0,0,1,1.24-.3H30.38a2.76,2.76,0,0,1,1.24.3A2.85,2.85,0,0,1,33.27,24v4.89a2.86,2.86,0,0,1-1.54,2.55Z"/>
            <path d="M30.38,21.85a2.11,2.11,0,0,1,.93.22A2.16,2.16,0,0,1,32.55,24v4.89a2.15,2.15,0,0,1-.76,1.64H2.21a2.15,2.15,0,0,1-.76-1.64V24a2.16,2.16,0,0,1,1.24-1.95,2.11,2.11,0,0,1,.93-.22H30.38m0-1.46H3.62a3.58,3.58,0,0,0-1.56.37A3.62,3.62,0,0,0,0,24v4.89a3.63,3.63,0,0,0,3,3.56V32H31v.47a3.63,3.63,0,0,0,3-3.56V24a3.62,3.62,0,0,0-2.06-3.26,3.58,3.58,0,0,0-1.56-.37Z"/>
          </g>
          <g>
            <path class="cls-1" d="M17,7.48a3.51,3.51,0,1,1,2.06-.69A3.45,3.45,0,0,1,17,7.48Z"/>
            <path d="M17,1a3,3,0,0,1,3,3,2.92,2.92,0,0,1-1.21,2.37,2.89,2.89,0,0,1-3.5,0A2.92,2.92,0,0,1,14,4a3,3,0,0,1,3-3m0-1a4,4,0,1,0,4,4,4,4,0,0,0-4-4Z"/>
          </g>
          <g>
            <rect class="cls-1" x="3.52" y="32.52" width="26.96" height="12.96"/>
            <path d="M30,33V45H4V33H30m1-1H3V46H31V32Z"/>
          </g>
        </g>
        <path class="cls-2" d="M7.87,36.62a8,8,0,0,0,10.26,4.76"/>
        <rect class="cls-2" x="7" y="26" width="4" height="2"/>
        <rect class="cls-2" x="22" y="26" width="4" height="2"/>
      </g>
    </g>
  </g>
</svg>
