<svg xmlns="http://www.w3.org/2000/svg" width="38.43" height="36.83" viewBox="0 0 38.43 36.83">
  <defs>
    <style>
      .cls-1 {
        fill: #fbb03b;
        stroke-width: 0.94px;
      }

      .cls-1, .cls-2, .cls-3 {
        stroke: #000;
        stroke-miterlimit: 10;
      }

      .cls-2 {
        fill: #ff0;
        stroke-width: 0.68px;
      }

      .cls-3 {
        fill: #c1272d;
        stroke-width: 0.39px;
      }
    </style>
  </defs>
  <g id="Layer_2" data-name="Layer 2">
    <g id="Layer_3" data-name="Layer 3">
      <path class="cls-1" d="M21.38,1.82,25.3,9.76a2.4,2.4,0,0,0,1.82,1.32l8.76,1.28a2.41,2.41,0,0,1,1.34,4.12l-6.34,6.18a2.4,2.4,0,0,0-.69,2.14l1.49,8.73a2.42,2.42,0,0,1-3.5,2.55L20.34,32a2.42,2.42,0,0,0-2.25,0l-7.84,4.13a2.42,2.42,0,0,1-3.51-2.55l1.5-8.73a2.43,2.43,0,0,0-.7-2.14L1.2,16.48a2.42,2.42,0,0,1,1.34-4.12l8.77-1.28a2.44,2.44,0,0,0,1.82-1.32l3.92-7.94A2.41,2.41,0,0,1,21.38,1.82Z"/>
      <path class="cls-2" d="M21.14,7.43,24,13.16a1.74,1.74,0,0,0,1.31,1L31.6,15a1.74,1.74,0,0,1,1,3L28,22.47a1.77,1.77,0,0,0-.5,1.55l1.08,6.29A1.74,1.74,0,0,1,26,32.15l-5.65-3a1.74,1.74,0,0,0-1.63,0l-5.65,3a1.75,1.75,0,0,1-2.54-1.84L11.65,24a1.75,1.75,0,0,0-.5-1.55L6.58,18a1.74,1.74,0,0,1,1-3l6.33-.92a1.74,1.74,0,0,0,1.31-1L18,7.43A1.75,1.75,0,0,1,21.14,7.43Z"/>
      <path class="cls-3" d="M21.13,12.92l1.62,3.28a1,1,0,0,0,.75.55l3.63.52A1,1,0,0,1,27.68,19l-2.62,2.55a1,1,0,0,0-.29.89L25.39,26a1,1,0,0,1-1.45,1l-3.24-1.7a1,1,0,0,0-.93,0l-3.24,1.7a1,1,0,0,1-1.46-1l.62-3.61a1,1,0,0,0-.28-.89L12.78,19a1,1,0,0,1,.56-1.71L17,16.75a1,1,0,0,0,.75-.55l1.63-3.28A1,1,0,0,1,21.13,12.92Z"/>
    </g>
  </g>
</svg>
