<svg xmlns="http://www.w3.org/2000/svg" width="40" height="40" viewBox="0 0 40 40">
  <defs>
    <style>
      .cls-1 {
        fill: #ff0;
      }

      .cls-2 {
        fill: #fff;
      }

      .cls-3 {
        fill: none;
        stroke: #000;
        stroke-miterlimit: 10;
        stroke-width: 1.11px;
      }
    </style>
  </defs>
  <g id="Layer_2" data-name="Layer 2">
    <g id="Layer_1-2" data-name="Layer 1">
      <g>
        <g>
          <circle class="cls-1" cx="20" cy="20" r="19.49"/>
          <path d="M20,1A19,19,0,1,1,1,20,19,19,0,0,1,20,1m0-1A20,20,0,1,0,40,20,20,20,0,0,0,20,0Z"/>
        </g>
        <g>
          <circle class="cls-2" cx="20" cy="20" r="12.95"/>
          <path d="M20,7.61A12.39,12.39,0,1,1,7.61,20,12.41,12.41,0,0,1,20,7.61M20,6.5A13.5,13.5,0,1,0,33.5,20,13.49,13.49,0,0,0,20,6.5Z"/>
        </g>
        <line class="cls-3" x1="33" y1="5.5" x2="28.5" y2="10"/>
        <line class="cls-3" x1="25" y1="31.5" x2="28" y2="37.5"/>
        <line class="cls-3" x1="9" y1="27.5" x2="4" y2="31.5"/>
      </g>
    </g>
  </g>
</svg>
