<svg xmlns="http://www.w3.org/2000/svg" width="49.5" height="36" viewBox="0 0 49.5 36">
  <defs>
    <style>
      .cls-1 {
        fill: #8cc63f;
      }

      .cls-1, .cls-2, .cls-3, .cls-4, .cls-5, .cls-6, .cls-7, .cls-8, .cls-9 {
        stroke: #000;
        stroke-miterlimit: 10;
      }

      .cls-2 {
        fill: #fff;
      }

      .cls-3 {
        fill: #f7931e;
      }

      .cls-3, .cls-4, .cls-6 {
        stroke-width: 0.83px;
      }

      .cls-5 {
        stroke-width: 0.29px;
      }

      .cls-6 {
        fill: #42210b;
      }

      .cls-7 {
        fill: #c1272d;
      }

      .cls-8 {
        fill: #fbb03b;
        stroke-width: 0.58px;
      }

      .cls-9 {
        fill: none;
        stroke-width: 0.5px;
      }
    </style>
  </defs>
  <g id="Layer_2" data-name="Layer 2">
    <g id="Layer_5" data-name="Layer 5">
      <g>
        <rect class="cls-1" x="0.5" y="0.5" width="48.5" height="35" rx="5.04"/>
        <circle class="cls-2" cx="31" cy="18" r="14.5"/>
        <circle class="cls-3" cx="31.5" cy="17.5" r="5"/>
        <circle class="cls-4" cx="45" cy="4" r="1.5"/>
        <rect class="cls-5" x="40" y="31.25" width="7" height="1.75" rx="0.87"/>
        <circle class="cls-6" cx="9.5" cy="8.5" r="5"/>
        <rect class="cls-7" x="12.19" y="25.69" width="1.56" height="2.77" transform="translate(41.28 37.05) rotate(135)"/>
        <rect x="10.29" y="22.88" width="1.41" height="4.24" transform="translate(-14.46 15.1) rotate(-45)"/>
        <polygon points="10 8 10 23 9 24 9 8 10 8"/>
        <circle class="cls-8" cx="31.5" cy="17.5" r="3.5"/>
        <g>
          <path class="cls-9" d="M43.11,20.23A12.28,12.28,0,0,1,28,28.88"/>
          <path class="cls-9" d="M39.83,18.61a9.28,9.28,0,0,1-11.39,6.54"/>
          <path class="cls-9" d="M41.7,19.36a11,11,0,0,1-13.53,7.77"/>
        </g>
        <g>
          <path class="cls-9" d="M19.59,15.55a12.28,12.28,0,0,1,14.7-9.27"/>
          <path class="cls-9" d="M22.93,17a9.28,9.28,0,0,1,11.12-7"/>
          <path class="cls-9" d="M21,16.36A11,11,0,0,1,34.23,8"/>
        </g>
      </g>
    </g>
  </g>
</svg>
